# xmcd
#
# Track frame offsets:
#	150
#	19686
#	36570
#	55884
#	67682
#	90213
#	106288
#	126319
#	147183
#	165435
#	182397
#
# Disc length: 2654 seconds
#
# Revision: 0
# Processed by: cddbd v1.5.1PL0 Copyright (c) Steve Scherf et al.
# Submitted via: dBpowerAMP V4.0
#
DISCID=840a5c0b
DTITLE=Pushstart Wagon - L.A. Was Our Alamo
DYEAR=2005
DGENRE=Rock and Roll
TTITLE0=Paul
TTITLE1=Radiation
TTITLE2=Country Star
TTITLE3=Mary
TTITLE4=Love is Such a Hard Way
TTITLE5=Breathing Room
TTITLE6=Would I Be So True
TTITLE7=Aisle Walker
TTITLE8=Defend You
TTITLE9=Teenage Bible
TTITLE10=Los Angeles
EXTD=Pushstart Wagon is: \nSteve Guiles- Vocals and Guitar\nEric Shouse- Bass and Backing Vocals\nBen Eggehorn- Drums and Percussion\n\nAll Songs by Steve Guiles, Eric Shouse, Ben Eggehorn\nLyrics by Steve Guiles\n\nPublished by New Cool Now Music/Everybody R
EXTD=un Music/\nRaised Eyebrow Music, ASCAP [C] [P] 2005\n\nProduced by Ben Eggehorn and Pushstart Wagon\nEngineered and Mixed by Ben Eggehorn\nRecorded at BME Sound Studio (Monrovia, CA]\nExcept Drums on: Paul, Aisle Walker, Defend You\nRecorded at Citrus 
EXTD=Studios (Glendora, CA]\n\nMastered at Vision Mastering by Mike Mierau\n\nwww.pushstartwagon.com\n\nPushstart Wagon\nP.O. Box 181\nMonrovia, CA 91017-0181\n
EXTT0=
EXTT1=
EXTT2=
EXTT3=
EXTT4=
EXTT5=
EXTT6=
EXTT7=
EXTT8=
EXTT9=
EXTT10=
PLAYORDER=
